<svg id="Layer_1" data-name="Layer 1" xmlns="http://www.w3.org/2000/svg" viewBox="0 0 444.13 344.01"><defs><style>.cls-1{fill:none;stroke:#000;stroke-miterlimit:10;}.cls-2{font-size:20.25px;font-family:Myriad Pro;}</style></defs><title>chartHef</title><line class="cls-1" x1="50.9" y1="331.95" x2="50.9" y2="323.9"/><line class="cls-1" x1="90.18" y1="331.95" x2="90.18" y2="323.9"/><line class="cls-1" x1="129.45" y1="331.95" x2="129.45" y2="323.9"/><line class="cls-1" x1="168.72" y1="331.95" x2="168.72" y2="323.9"/><line class="cls-1" x1="207.99" y1="331.95" x2="207.99" y2="323.9"/><line class="cls-1" x1="247.27" y1="331.95" x2="247.27" y2="323.9"/><line class="cls-1" x1="286.54" y1="331.95" x2="286.54" y2="323.9"/><line class="cls-1" x1="325.81" y1="331.95" x2="325.81" y2="323.9"/><line class="cls-1" x1="365.09" y1="331.95" x2="365.09" y2="323.9"/><line class="cls-1" x1="404.36" y1="331.95" x2="404.36" y2="323.9"/><line class="cls-1" x1="443.63" y1="331.95" x2="443.63" y2="323.9"/><rect x="17.13" y="235.35" width="28.28" height="96.6"/><rect x="56.4" y="267.55" width="28.28" height="64.4"/><rect x="95.67" y="273.99" width="28.28" height="57.96"/><rect x="134.95" y="254.67" width="28.28" height="77.28"/><rect x="174.22" y="180.61" width="28.28" height="151.34"/><rect x="213.49" y="151.63" width="28.28" height="180.32"/><rect x="252.77" y="45.37" width="28.28" height="286.58"/><rect x="292.04" y="45.37" width="28.28" height="286.58"/><rect x="331.31" y="148.41" width="28.28" height="183.54"/><rect x="370.58" y="238.57" width="28.28" height="93.38"/><rect x="409.86" y="87.23" width="28.28" height="244.72"/><text class="cls-2" transform="translate(0 338.95)">0</text><text class="cls-2" transform="translate(0 298.7)">1</text><text class="cls-2" transform="translate(0 258.45)">2</text><text class="cls-2" transform="translate(0 218.2)">3</text><text class="cls-2" transform="translate(0 177.95)">4</text><text class="cls-2" transform="translate(0 137.7)">5</text><text class="cls-2" transform="translate(0 97.45)">6</text><text class="cls-2" transform="translate(0 57.2)">7</text><text class="cls-2" transform="translate(0 16.95)">8</text></svg>