<svg id="Layer_1" data-name="Layer 1" xmlns="http://www.w3.org/2000/svg" viewBox="0 0 449.64 344.01"><defs><style>.cls-1{fill:none;stroke:#000;stroke-miterlimit:10;}.cls-2{font-size:20.25px;font-family:Myriad Pro;}</style></defs><title>chartBos</title><path class="cls-1" d="M467.5,474.5" transform="translate(-18.36 -143.14)"/><line class="cls-1" x1="56.41" y1="331.36" x2="56.41" y2="323.31"/><line class="cls-1" x1="95.68" y1="331.36" x2="95.68" y2="323.31"/><line class="cls-1" x1="134.96" y1="331.36" x2="134.96" y2="323.31"/><line class="cls-1" x1="174.23" y1="331.36" x2="174.23" y2="323.31"/><line class="cls-1" x1="213.5" y1="331.36" x2="213.5" y2="323.31"/><line class="cls-1" x1="252.77" y1="331.36" x2="252.77" y2="323.31"/><line class="cls-1" x1="292.05" y1="331.36" x2="292.05" y2="323.31"/><line class="cls-1" x1="331.32" y1="331.36" x2="331.32" y2="323.31"/><line class="cls-1" x1="370.59" y1="331.36" x2="370.59" y2="323.31"/><line class="cls-1" x1="409.86" y1="331.36" x2="409.86" y2="323.31"/><line class="cls-1" x1="449.14" y1="331.36" x2="449.14" y2="323.31"/><text class="cls-2" transform="translate(0 338.95)">0</text><text class="cls-2" transform="translate(0 298.7)">1</text><text class="cls-2" transform="translate(0 258.45)">2</text><text class="cls-2" transform="translate(0 218.2)">3</text><text class="cls-2" transform="translate(0 177.95)">4</text><text class="cls-2" transform="translate(0 137.7)">5</text><text class="cls-2" transform="translate(0 97.45)">6</text><text class="cls-2" transform="translate(0 57.2)">7</text><text class="cls-2" transform="translate(0 16.95)">8</text><rect x="22.64" y="250.86" width="28.28" height="80.5"/><rect x="61.91" y="210.61" width="28.28" height="120.75"/><rect x="101.18" y="170.36" width="28.28" height="161"/><rect x="140.45" y="150.23" width="28.28" height="181.13"/><rect x="179.73" y="190.48" width="28.28" height="140.88"/><rect x="219" y="250.86" width="28.28" height="80.5"/><rect x="258.27" y="258.91" width="28.28" height="72.45"/><rect x="297.54" y="178.41" width="28.28" height="152.95"/><rect x="336.82" y="101.93" width="28.28" height="229.43"/><rect x="376.09" y="214.63" width="28.28" height="116.73"/><rect x="415.36" y="9.36" width="28.28" height="322"/></svg>