<?xml version="1.0" encoding="utf-8"?>
<!-- Generator: Adobe Illustrator 19.2.1, SVG Export Plug-In . SVG Version: 6.00 Build 0)  -->
<svg version="1.1" id="Layer_1" xmlns="http://www.w3.org/2000/svg" xmlns:xlink="http://www.w3.org/1999/xlink" x="0px" y="0px"
	 viewBox="0 0 960 560" style="enable-background:new 0 0 960 560;" xml:space="preserve">
<style type="text/css">
	.st0{fill:#EFEEE8;}
	.st1{font-family:'ArialMT';}
	.st2{font-size:4.5px;}
	.st3{fill:#231F20;}
	.st4{fill:#404040;}
	.st5{font-family:'Avenir-Book';}
	.st6{font-size:8px;}
	.st7{letter-spacing:2;}
	.st8{font-family:'Avenir-Roman';}
</style>
<polyline class="st0" points="653.1,337.3 653.8,337.3 654.3,337.5 654.7,337.3 655,337.3 655.4,337.6 655.5,338.7 656,339.9 
	655.9,355.6 655.4,355.5 654.7,354.4 653.8,353.6 652.7,353.4 651.4,352.5 649.6,348.8 649.5,347.8 651.3,339.8 652.7,337.7 
	653.1,337.3 "/>
<polyline class="st0" points="606.7,383.4 606.5,383.4 606.9,382.8 607.7,383.1 608.7,383 609.5,384.7 608.7,385.7 607.7,389.9 
	605.9,392.2 604.9,392.8 604.3,394.1 603.8,394.1 603.2,393.9 599.5,393.8 598.5,393 597.9,389.8 600.2,386.9 600.3,386.5 
	601.9,385.1 604.5,384.3 605.1,383.7 606.7,383.4 "/>
<polyline class="st0" points="624.5,364.4 624.3,365 624.1,364.8 624,364.6 623.6,364.4 622.7,365 622.7,365.2 623.3,365.5 
	621.8,366.4 621.6,366 621.7,365.7 621.3,365.4 620.2,365 619.4,365 619,364.6 619.6,367.5 619.3,367.7 619,367.8 617.3,366.9 
	616.9,366.4 616.8,368.8 617.1,369.1 617.2,369.9 617,370.2 616.6,370.2 615.3,371.3 614.4,371.7 613.8,372.2 613,372.4 
	612.7,372.3 611.8,372.8 611,373.9 608.9,374.9 608,375.1 607.9,375.5 605.8,376.8 604.9,376.8 604.3,379.4 605.7,380.8 
	605.8,381.8 604.5,382.9 603.4,382.6 601.2,379.7 601.5,377.4 601,376.8 599.7,378 598.7,378.3 598.2,378 598,377.6 595.4,377.6 
	595,377.7 594.8,378.5 594,378.9 594.1,379.5 593.6,378.7 592.4,379.6 591.8,379.3 589,379.9 588.6,379.5 586.2,378.9 585.3,378 
	584.7,376.8 585,375.3 584.4,374.7 581.4,375 577.2,374.1 576.6,374.3 575,376.2 573.2,377.4 572.4,377.3 571.7,378.2 570.9,378.8 
	570.4,378.3 569.3,378.8 568.6,378.5 566.8,379.8 566.2,379.8 565.5,379.4 564.2,379.4 563.9,379.2 563.7,379.4 562.9,380.8 
	562.9,381.1 562.2,380.9 562.2,380.7 560.3,380.9 559.7,381.8 560,384.2 560.7,385.5 560.8,386.8 560.4,387.1 558.5,387.9 
	557.6,385.2 556.5,385.2 555.2,386.5 553.3,387 551.5,385.8 551.2,384.8 548,384.5 548.6,380.4 545.8,379.3 545.6,377.6 545,376.4 
	544.9,375.5 541.4,376.2 539.3,378.1 538.8,377.8 539.6,376.1 539.7,375.4 539.3,374.2 539.9,371.3 540.8,370.2 541.1,369.3 
	541.7,369.1 542.4,368 543.1,365.7 543.1,362.5 541.8,358.3 540.5,358.5 539.9,357.8 539.5,356.4 538.3,355.5 537.2,355.2 
	536.9,355.2 536.6,355.7 535.8,356.1 535.4,355.1 534.4,354.9 533.2,355.1 532.4,354.9 530.8,355.1 530.9,352.6 529.8,352.5 
	529.5,351.7 529.7,351.1 528.6,350.2 527.6,350.6 526.4,351.5 523.6,352.2 522.9,352.2 522.2,351.9 521.8,351.9 520.3,352.9 
	519.8,353.9 518.2,355.4 516.9,355.8 514.9,357.9 508.6,360.6 508.8,360.8 508.7,360.6 507.5,360.1 507.3,359.8 507,359.7 
	505.8,360.1 502.8,359.7 502.1,359.4 502.1,359.2 501.7,358.8 501.2,358.7 500,358.8 499,359.3 495.2,363.3 495.2,363.7 
	494.7,363.7 494.4,363.6 494.2,363.4 494.2,362.8 494.5,361.7 494.5,361.2 494.3,360.5 494.1,360.2 493.8,360 493.3,360.1 
	492.6,360.7 491.9,360.7 491.1,361 491.1,361.1 490.7,361 490.1,361.1 489.6,361.8 488,361.6 487.4,361.7 485.6,361.2 485,360.7 
	484.1,360.6 483.8,360.7 483.4,361.3 483.2,361.3 482.7,361.1 482.2,361.3 481.6,360.9 481.3,361.2 480.8,361.3 480.5,361.1 
	480.1,360.6 480.1,360.3 479.6,359.8 478.9,359.7 478.3,359.9 477,359.1 476.9,358.6 477.2,357.5 477,357.5 476.5,357.8 
	475.3,357.8 474.8,357.5 474.2,357.6 473.8,357.3 473.4,357.3 473.1,357 472.9,356.6 472.5,356.8 472.4,356.6 472.6,355.6 
	472.5,355 472.9,354.6 472.7,354.4 472.2,354.3 471.7,354.3 471.3,354.3 471,354.6 471,354.8 470.7,355.1 470.4,355.1 470,355.5 
	469.2,355.2 468.9,354.9 468.8,353.6 467.4,352.1 466.2,351.7 465,350.3 461.3,349.3 461.1,349.1 459.8,349 459.6,349 459.6,349.1 
	459.5,349.5 459.2,349.9 459.3,350.1 459.2,350.3 458.5,349.7 458.3,349.3 456.5,348.6 456.2,348.4 456,347.9 455.5,347.9 
	454.6,347.1 453.6,346.7 453.4,346.4 453.5,346.1 453.3,345.8 452.9,345.8 452.7,345.6 452.4,345.4 451.6,345.7 451.6,345.5 
	451.5,345 451.3,344.9 451.1,344.8 450,344.8 449.1,345.1 448.8,345 448.7,344.8 448.9,344.1 448.5,343.8 448.2,343.3 448.2,343.1 
	447.8,342.7 447.9,342.4 448.2,341.8 447.9,341.3 448.1,340.5 448.3,340 447.2,338.6 447.3,337.8 447.2,337.3 447.3,337.1 
	448.2,337 448.5,336.7 448.6,336.8 448.6,337.4 448.8,337.7 449,337.9 449.5,338.2 449.8,338.2 449.9,338 450.3,338.1 450.4,337.7 
	450.7,337.5 451.1,337.1 451.2,337.1 451.5,337.5 451.6,337.5 452.4,336.7 452.5,336.5 451.8,335.4 451.7,335 451.9,334.8 
	451.9,334.5 451,334.1 450.7,334.1 450.5,333.9 449.9,333.2 450,332.2 450.4,332.1 450.3,331.6 450.4,331.4 450.5,331.3 450,330.7 
	450.1,330.3 450.2,330.2 450.9,330.3 451.3,330 452.1,330.3 452.4,330.2 452.8,329.8 453.3,329.1 453.3,328.3 454.1,328.3 
	454.2,328.2 454.1,328 454.1,327.7 454.5,327.6 454.5,327.4 455.5,326.8 455.5,326.3 456,325.9 456.3,324.6 456.5,324.4 
	456.5,323.8 457.1,323.3 457.1,323.1 456.9,322.9 456.5,322.9 455.9,323.4 455.7,323.5 455.5,323.2 455.4,322.4 454.9,322.6 
	454.7,322.5 454.5,322.2 454.3,322.2 454.1,322.1 454.1,321.3 453.8,321.2 453.7,321.1 453.5,321 453.2,320.9 453,320.6 
	452.8,320.5 452.5,320.4 452.2,320.6 451.7,320.6 451.3,320.8 450.1,320.8 447.8,321.9 447.4,322.3 446.9,322.3 446.6,322.7 
	446.1,322.4 445.6,322.6 444.4,322.4 443.8,322 443.3,322.1 440.7,320.6 440.8,320.1 440.7,319.8 440.4,319.9 440,320.1 
	439.8,320.1 439.3,320.2 439.1,320.1 438.6,319.2 438.1,319 438,318.8 438.1,318.6 438.4,318.5 438.6,318.3 438.6,317.9 
	438.4,317.8 438.6,317.3 438.6,316.8 438.5,316.4 437.3,315.3 436.9,315.3 436.4,315.6 436.3,315.5 436.4,314.6 436.3,314.4 
	435.7,314.4 435.3,314.2 435.1,314.1 434,314.2 433.1,313.8 433.2,313.7 433.1,313.3 432.7,313.1 432.6,312.9 433.3,312.4 
	433.6,312.4 433.9,312.5 434.2,312.5 433.9,312.5 434.5,312.7 434.8,312.7 435.1,310.2 434.6,308.4 434.8,307 434.3,306.2 
	433,305.9 431.4,306.1 430.6,305.6 430.4,304.3 430.6,302.9 431.7,300.7 431.7,299.9 432.6,298.7 435.1,298 435.5,297.7 
	436.1,297.7 436.6,296.8 437.4,297.1 438.5,296.8 439.3,297 439.6,297.9 442.4,298.1 443.5,297.5 444,296.3 444.8,295.6 450.3,295 
	452.2,293.2 458.4,290.9 458.9,290 459,288.2 459.3,287.4 459.8,286.8 459.8,285.9 460.7,285.4 460.8,284.4 459,277.4 458.4,276.9 
	459.1,276.4 467.1,275.3 467.6,275 467,272.9 469.9,265.6 471.5,265.6 472.1,266.1 473.3,266.5 475.6,266.2 476.9,267.2 
	477.8,266.4 479.3,265.9 479.5,260.8 480.2,259.5 481.2,259.5 482.5,259.1 483.5,258.1 484.1,256.9 485.6,257.2 486.6,256.2 
	486.9,256.2 487,256.4 488,258.5 490,259.8 490.8,261 491.8,261.6 492.3,260.9 493.3,261 494.3,261.5 495.4,261.5 498.5,267.3 
	499.1,271.5 498.7,272.6 498.7,273.5 499.3,274 505.6,274.7 506.4,274.3 507.3,274.1 515.8,276.4 516.6,276.4 523.6,283.1 
	524.7,283.4 537.6,280 542.1,280.3 544.2,281.4 551.6,282.2 553.6,281.9 554.1,281.9 555,282.3 555.9,282.3 556.6,282 557.7,280.6 
	561.1,278.4 561.4,277.6 565.6,275 567.4,274.6 568.4,273.8 570.5,273.7 570.8,273.4 572.6,272.6 576.1,268.9 576.4,267.7 579,263 
	578.5,262.2 576.3,260.9 576.2,259.9 576.7,257 577.8,256.1 579,256 580.1,256.5 582.7,255.8 584,254 585.3,250.3 586.7,249.7 
	587.8,248.1 589.8,242 595.1,238.5 597.6,237.7 598,237.1 597.4,236.4 596.4,236.3 595.8,235 595,234.4 592.6,233.9 590.6,232.9 
	588.9,236.2 586.2,238.1 583.6,238.7 582.7,238.1 581.3,235.8 581.3,234.5 579.8,231.6 580,227.8 580.3,227.1 580.2,226.9 
	585.7,226.5 586.2,226 588.5,221.9 588.3,221.4 587.8,220.9 587.6,220.1 587.8,218.3 586.7,214.1 587.3,213 587.7,210.9 
	587.5,210.6 587,210.3 586.1,208.8 585.7,208.8 584.4,210 584.1,209.8 583.9,209 584.4,207.1 584.4,206.3 584.8,205.2 591,199.4 
	593.5,199.3 594.4,199.5 595.3,199.2 596.1,198.5 597.9,198 599.9,198.9 600.4,199.4 601.7,199.5 602.1,199.8 601.9,199.6 
	611.6,206.6 611.8,206.9 611.9,206.8 613.5,208.8 614.5,208.9 615.8,208.2 616.5,207 617.6,206.8 618.7,206.2 619.9,205.9 
	622.6,206.2 623.6,206 624.2,205.5 624.9,205.7 625,206 625.1,205.9 625.8,206.6 626.5,206.9 627.9,208.6 629.9,209.5 630.8,208.7 
	632,208.2 632.8,207.3 634.3,202.7 635.2,201.8 637.1,197.6 637.2,197.7 637.5,198.8 638.3,199.8 639.3,200.3 640.1,201.4 
	639.9,203.8 643,209.9 643.8,214.4 644.5,215.8 644.3,216.8 643.8,216.9 640.7,218.4 639.8,222.9 640.9,223.3 644.9,228.1 
	645.1,230.2 644.7,232.1 645.5,233.2 645,233.5 643.8,232.9 642.8,232.8 642.5,233.7 643.1,236.7 642.2,239.4 639.8,241.6 
	639.9,242.3 641.5,244.1 639.1,246 637.9,246.1 636.6,246.5 633.6,255 632.8,256.1 632.4,259.5 632.4,259.8 629.9,262.5 
	629.2,262.3 628.5,264 626.7,266.3 626.4,267.3 626.4,268.3 625.9,269.3 625.3,269.6 625.1,270.3 624.2,271.6 623.6,271.5 
	623.8,270.3 624.7,269.5 624.4,267.8 622.5,267.8 622.9,267.1 622.6,266.2 623.1,265.3 623.5,261.4 623.1,261 621.9,260.5 
	621.2,259.8 620.6,259.6 620.5,260.2 619,261.1 618.6,261.7 617.7,266.3 615.1,270 615.4,272.2 614.6,273.9 612.3,275.5 
	611.7,275.4 610.9,275.7 610.5,276.7 611,279.6 613.4,280.8 614.1,280.8 614.6,280.6 615.2,280.9 615.8,280.6 616.4,281.2 
	617.4,281.5 618.2,282.6 619.1,283.1 621.3,282.9 622.3,282.3 622.5,280.8 623.1,279.8 623.2,278.8 624.9,276.9 626,277.3 
	626.9,277.4 627.6,277.1 628.4,277.4 629.8,276.5 630.2,275.9 631.3,275.8 632.2,275.5 632.5,275.4 632.9,276.5 632.8,277.3 
	633,277.6 632.7,278.8 632.3,278.8 631.7,278.2 631.4,278.7 630.9,278.8 630.5,280.3 629,281.4 628.4,282.3 627.6,282.7 
	628.2,283.5 628,283.6 627.8,284.2 627.9,285.7 627.2,286.1 626.6,285.4 625.9,285.8 625.7,286.7 626.5,287 626.3,288.7 
	625.3,290.1 624.9,294.4 625.3,295 626.2,294.8 627.1,295 630.1,295 630.9,295.5 631.8,296.6 632.6,297 636.4,301.6 637.6,302.2 
	638.8,302.2 639.2,302.9 641.1,303.5 642.5,304.5 642.6,304.7 639.7,305 638.8,305.4 636.4,305.3 634.6,306.8 634.7,307.2 
	636.6,305.8 637.1,305.9 637.5,306.4 638.4,306.1 639.7,306.3 640.9,306.8 642.2,306.9 644.2,308.1 644.3,308.5 643.2,309.1 
	642.7,310.3 641.5,311.7 641.4,312.2 640.8,313.2 638.7,314.4 638,315.2 638.9,314.7 641.1,314.5 642.4,313 643.2,312.9 
	644.1,313.1 644.6,313.5 645.8,313.5 646.4,313.2 646.8,313.1 645.2,316.2 645.6,316.1 646.6,314.9 647.3,316.8 647,316.6 
	646.7,317.1 645.9,317.8 645.9,318 646.7,318.6 646.9,319.8 646.7,320.4 647.4,321.7 647.3,323.2 646.9,323.1 646.2,322.8 
	645.9,323.3 644.9,328 645.1,328.6 644.8,330.5 644,332.2 644.2,333.4 643.8,334.2 643.6,334.2 643.1,333.1 642.4,333.5 642,334.3 
	643.1,335.3 643.3,335.7 643.3,337.2 643.5,337.6 643.5,338.8 643.3,339.1 643.1,339.3 643.2,339.8 643.6,340.4 643.5,340.8 
	643.1,340.7 642.5,340.9 642.3,341.5 642.7,342 642.5,342.6 642.1,342.6 641.7,342.9 641.6,344.4 641.1,345.1 641.2,346 
	640.9,346.6 639.5,347.4 638.8,347.5 638.3,348.4 638.4,348.6 638.9,348.9 638.8,349.9 637.9,351.5 637.5,351.6 637.6,352.8 
	637.2,352.2 636.8,352.7 636.9,353.5 636.5,353.4 636.2,353.5 635.5,354.5 635.1,354.5 634.5,355 633.5,358.1 630.7,360.9 
	629.3,361 629.1,361.5 629.1,361.9 628.5,362.2 628,362.2 627.8,361.8 627.1,361.8 626.4,362.6 626.1,363.4 625.5,363.7 
	625.1,363.3 625,362.9 624.3,363.4 624.5,364.3 624.5,364.4 "/>
<path d="M622.4,312c0.4,0,0.8,0.3,0.8,0.8c0,0.4-0.3,0.8-0.8,0.8c-0.4,0-0.8-0.3-0.8-0.8C621.6,312.3,622,312,622.4,312z"/>
<path d="M641.5,306.8c0.4,0,0.8,0.3,0.8,0.8s-0.3,0.8-0.8,0.8c-0.4,0-0.8-0.3-0.8-0.8S641.1,306.8,641.5,306.8z"/>
<g>
	<text transform="matrix(1 0 0 1 643.2241 306.1064)" class="st1 st2">Shanghai</text>
</g>
<path class="st3" d="M603.4,274.3h1.3l-1,0.8l0.4,1.2l-1-0.8l-1,0.8l0.4-1.2l-1-0.8h1.3l0.4-1.2L603.4,274.3z"/>
<g>
	<text transform="matrix(1 0 0 1 588.8711 271.7998)" class="st3 st1 st2">Beijing</text>
</g>
<text transform="matrix(1 0 0 1 523.7946 317.4678)" class="st4 st5 st6 st7">China</text>
<text transform="matrix(1 0 0 1 610.4655 311.1299)" class="st8 st2">Hefei</text>
</svg>
