<?xml version="1.0" encoding="utf-8"?>
<!-- Generator: Adobe Illustrator 19.2.1, SVG Export Plug-In . SVG Version: 6.00 Build 0)  -->
<svg version="1.1" id="Layer_1" xmlns="http://www.w3.org/2000/svg" xmlns:xlink="http://www.w3.org/1999/xlink" x="0px" y="0px"
	 viewBox="0 0 324.7 302" style="enable-background:new 0 0 324.7 302;" xml:space="preserve">
<style type="text/css">
	.st0{fill:#58595B;}
	.st1{fill:none;stroke:#ED1C24;stroke-miterlimit:10;}
	.st2{fill:#ED1C24;}
	.st3{fill:#FFFFFF;}
	.st4{fill:#6D6E71;}
	.st5{fill:none;stroke:#000000;stroke-miterlimit:10;}
	.st6{fill:#1F2B5B;}
	.st7{fill:none;stroke:#ED1C24;stroke-width:3;stroke-miterlimit:10;}
</style>
<g>
	<g>
		<path class="st2" d="M120.3,36.5c10.4,45.8,51.4,81.1,99.5,76.7c0.2,0-0.1-5,0-5c-48.1,4.4-89.2-31-99.5-76.7
			C120.6,33.1,119.9,34.9,120.3,36.5L120.3,36.5z"/>
	</g>
</g>
<g>
	<g>
		<path class="st2" d="M208,99.4c4,4.5,8.9,9,12.2,14c0-1.7,0-3.3,0-5c-0.7,2.6-4.7,4.6-6.4,6.8c-2.1,2.7-3.3,5.8-4.1,9.1
			c-0.4,1.6,0.4,3.4,0,5c1-4.3,2.9-8.3,6.1-11.4c2.3-2.2,4.2-2.8,4.4-6c0.1-1.5,0.1-2.9-0.5-4.2c-1-2.1-3.7-4.2-5.2-5.9
			c-2.2-2.5-4.4-4.9-6.5-7.4C208.8,95.3,207.2,98.5,208,99.4L208,99.4z"/>
	</g>
</g>
</svg>
